#!OML:ASF F:\VICON\USERDATA\INSTALL\rory3\rory3.ASF
:FULLY-SPECIFIED
:DEGREES
27
root -0.863760911770604 17.065014099372533 -20.08559660663652 3.4326199962596866 1.3014872068770562 -4.641355062110438
lfemur -38.85676381332145 3.8934241114147916 -13.524139679555002
ltibia 107.29883015493232
lfoot 12.501357678841298 -8.30907527332568
ltoes -8.9614277520802
rfemur -1.09028988464458 0.9680778665252707 36.11955467758493
rtibia 48.89659941926793
rfoot -25.722651825725375 -16.56991868785066
rtoes -17.488038305526114
lowerback 17.082724465563327 1.1198568967755582 4.9735894906906974
upperback -0.2627517364355676 2.4944027570629492 3.3584665323790226
thorax -10.616221145498152 1.0601405379246782 0.032577929030897956
lowerneck -20.79035897159824 -3.2949451358364144 -1.625311124371597
upperneck 10.404584722232872 -4.059847313294361 0.6283657669532077
head 6.222188336121587 -2.010294094126547 0.0018045024109797358
lclavicle 1.1245391003195574e-15 -1.4766016290147524e-15
lhumerus -50.96544427532303 -14.927849508785593 98.41742714630892
lradius 99.87808202175239
lwrist 31.494976947731804
lhand -30.66588072860598 0.9962935066977715
lfingers 7.125019999999998
lthumb -3.0477061319590537 31.06738420793342
rclavicle 1.124539100431546e-15 -1.4766016289365901e-15
rhumerus -39.05923579114349 13.944796377157104 -93.15791904734945
rradius 117.4341543395082
rwrist -16.612713833458574
rhand -20.223855546885158 44.60374950597919
rfingers 7.125019999999998
rthumb 5.810127255777692 14.86700221048541
28
root -0.8589727966993395 17.12803616813271 -19.45895453011084 3.540080160490015 1.214877722186066 -4.600026776880721
lfemur -40.06598294273392 3.411109959383074 -14.018029243203756
ltibia 104.95445044309395
lfoot 11.49845936105392 -9.75855023072884
ltoes -6.271120257681119
rfemur 1.0001960528776337 1.557451480814323 35.95079514816391
rtibia 48.50260173102677
rfoot -23.917485722007914 -15.602092627241454
rtoes -19.93261408765506
lowerback 16.916001875840443 1.3105586236860036 5.020653965726837
upperback -0.3236468053713507 2.760727781043617 3.17863307500244
thorax -10.631549966910764 1.1699100261358744 -0.26561593457601596
lowerneck -20.52880588550276 -3.4432984673557243 -1.652317857943577
upperneck 9.94346988522011 -4.256736372340703 0.6454710322773525
head 5.976755506669983 -2.1108924372238786 0.001927129347210954
lclavicle 1.124539100325188e-15 -1.4766016290108022e-15
lhumerus -50.636976575182246 -15.69140245500248 98.63249172789396
lradius 100.14184515330149
lwrist 32.039609560736444
lhand -30.133423873473106 1.0413280904094744
lfingers 7.125019999999998
lthumb -2.810391430339254 31.072889374396112
rclavicle 1.1245391004185022e-15 -1.4766016289463235e-15
rhumerus -39.26518162861018 13.77886420286181 -92.85585982037851
rradius 118.6757444356696
rwrist -16.152141518866095
rhand -20.429351964377556 43.926129114382086
rfingers 7.125019999999998
rthumb 5.60559848131252 14.301454577168357
29
root -0.8413708808910307 17.1982341494011 -18.74340005892078 3.716231731575793 1.1724993113986986 -4.529372002635528
lfemur -41.08244408671696 2.8624261519179486 -14.524960469472909
ltibia 102.11330581396031
lfoot 10.962171083862662 -10.915240752940083
ltoes -4.146303625665127
rfemur 2.8867651581142937 2.2801251226748347 35.855165192558445
rtibia 48.38398474024491
rfoot -21.79576392236394 -14.53261035701805
rtoes -21.564281220778504
lowerback 16.70283129948354 1.4670497789219963 5.071227302257711
upperback -0.3900380880616093 2.9428737208425035 2.909132252081519
thorax -10.600097284252143 1.2450035651068643 -0.5549486853183537
lowerneck -20.595683646866313 -3.612913807068415 -1.6542955882944927
upperneck 9.69492024744747 -4.49806007028098 0.6467398501079313
head 5.8616496885515 -2.229026425629356 -0.01949644704738529
lclavicle 1.124539100324467e-15 -1.4766016290122508e-15
lhumerus -49.8348956442074 -16.548271840271937 98.68949244881429
lradius 100.23507112279506
lwrist 32.744490627346856
lhand -29.907976191235996 0.8555952279941108
lfingers 7.125019999999998
lthumb -2.625912145993848 31.036999987541478
rclavicle 1.1245391004215618e-15 -1.476601628945137e-15
rhumerus -39.55644337223889 13.833247374219276 -92.83350490859101
rradius 119.66701378328955
rwrist -15.643201079326806
rhand -20.724697927331597 43.60426219979068
rfingers 7.125019999999998
rthumb 5.348867994707722 14.282312115271665
30
root -0.7890071216192753 17.30618183736294 -17.06717822372986 3.9460585161163646 1.1642889984533569 -4.372637624010721
lfemur -41.75196949617539 2.213690679234035 -15.065590522266781
ltibia 98.72419090896759
lfoot 10.56831550788536 -11.672468672553547
ltoes -3.6997190967962856
rfemur 4.426792605724902 2.8614699897746703 35.649034951404815
rtibia 48.515669788561766
rfoot -19.107056278593056 -13.27952790777923
rtoes -21.239864713743177
lowerback 16.29906010922766 1.5937394635811546 5.160522407839774
upperback -0.516606201968504 3.1015482191264065 2.580232941806817
thorax -10.335390151858565 1.3187645561573098 -0.9239299549788899
lowerneck -20.54787981017834 -3.79723498831558 -1.6125681925905648
upperneck 9.615986322271208 -4.755895413787071 0.6758621734829524
head 5.828257188535577 -2.3516917813065756 -0.04195325569535813
lclavicle 1.1245391003269208e-15 -1.4766016290119453e-15
lhumerus -48.955103810491195 -17.252637458339542 98.66478211509342
lradius 100.42507281938974
lwrist 33.75616938769049
lhand -29.68413031058859 0.6765362652333418
lfingers 7.125019999999998
lthumb -2.4450900165196305 31.02113697290456
rclavicle 1.1245391004249531e-15 -1.4766016289442328e-15
rhumerus -39.874008679034986 13.989937181008077 -92.86167262308564
rradius 120.4354457216911
rwrist -14.792818910492366
rhand -21.016990647333763 43.379510934856896
rfingers 7.125019999999998
rthumb 5.158799853052157 14.210726393517273
31
root -0.7801528392758204 17.381100053007135 -18.004538609572347 4.192619129024755 1.5490269056858281 -4.4513453737228135
lfemur -42.20545779763971 1.3981211060130712 -15.260098730008743
ltibia 94.60375612479785
lfoot 10.173231012183946 -12.107709535389317
ltoes -5.241156792285898
rfemur 5.490701788364383 3.2654674612848247 35.76439016186609
rtibia 48.97765897149587
rfoot -16.33691135877911 -12.149641190880274
rtoes -20.25626338550079
lowerback 16.184403186304912 1.6371656421140235 5.331232276020091
upperback -0.6550571723384815 3.1667197235432445 2.3674586954559462
thorax -10.43845831039145 1.3258850676672147 -1.1780268385931656
lowerneck -20.29063874495434 -3.9702843302668462 -1.6057818383669926
upperneck 9.616261925682483 -5.002587402259809 0.7418352606007219
head 5.8363666273582675 -2.462462486113938 -0.0679962000665667
lclavicle 1.1245391003490764e-15 -1.4766016289967047e-15
lhumerus -47.784381387551356 -17.808453475089195 98.52473247857945
lradius 100.65668109946279
lwrist 34.96694930798759
lhand -29.421884669638136 0.537159807753809
lfingers 7.125019999999998
lthumb -2.082345941998331 30.990531169838643
rclavicle 1.1245391004336584e-15 -1.476601628938872e-15
rhumerus -40.18654367647318 14.157010920918019 -92.78116706605685
rradius 121.03458294256338
rwrist -14.071686311348998
rhand -21.21556447564236 43.19973658360212
rfingers 7.125019999999998
rthumb 5.038420482527072 13.69330382910054
32
root -0.770619266070791 17.455162855558765 -17.72988058263247 4.42738395008096 1.8525439937612842 -4.5298771853641835
lfemur -42.24279069042953 0.6322911097116861 -15.436831841959997
ltibia 90.0155915418652
lfoot 9.315279150907287 -12.39133196041713
ltoes -8.709456009241554
rfemur 6.3517984366257245 3.561997977961445 35.82135826780688
rtibia 49.8024258236046
rfoot -13.159938005361155 -10.882992763876576
rtoes -19.48284993522753
lowerback 15.958102662800144 1.6892662767579498 5.509498590662287
upperback -0.7714784595169883 3.2353974014885125 2.1851257003663824
thorax -10.483291424158372 1.3296785290444684 -1.4011272552066467
lowerneck -20.150179546274316 -4.150283433450279 -1.6462430267813053
upperneck 9.73351650539173 -5.259153587712734 0.8184146497323548
head 5.843209667861 -2.5796051471681376 -0.08643609178584621
lclavicle 1.1245391003486924e-15 -1.4766016289980035e-15
lhumerus -46.57553811786934 -18.284512283360318 98.4067231888407
lradius 101.00249533159136
lwrist 36.27183124283069
lhand -29.27783409500537 0.38743317042037007
lfingers 7.125019999999998
lthumb -1.9632306149105876 30.702751947769148
rclavicle 1.1245391004275676e-15 -1.4766016289444253e-15
rhumerus -40.50535605675124 14.281871573820931 -92.577110667263
rradius 121.56833907523496
rwrist -13.496288940177472
rhand -21.321229794547843 43.14453534032467
rfingers 7.125019999999998
rthumb 5.0680297267172385 13.335574871721512
